<?xml version="1.0" encoding="UTF-8"?>
<svg id="Layer_1" data-name="Layer 1" xmlns="http://www.w3.org/2000/svg" viewBox="0 0 96 96">
  <defs>
    <style>
      .cls-1 {
        fill: #fff;
        fill-rule: evenodd;
      }
    </style>
  </defs>
  <path d="M48,96C21.53,96,0,74.47,0,48S21.53,0,48,0s48,21.53,48,48-21.53,48-48,48ZM57.29,43.56c-24.4,0,0-18.48,0,5.92s-24.4-5.92,0-5.92,0,24.4,0,0,24.4,0,0,0Z"/>
  <g>
    <path class="cls-1" d="M45.76,65.39c-.36.27-.64.5-1.01.76-5.85,4.29-11.66,8.65-17.54,12.9.29-1.38.8-2.7,1.21-4.04,1.33-4.29,2.7-8.58,4.06-12.86h7.85l-1.03,3.24h6.45Z"/>
    <path class="cls-1" d="M63.59,62.17h-7.84l.94,3.21h-6.36c6.08,4.48,12.47,9.46,18.58,13.89l-5.32-17.11Z"/>
    <path class="cls-1" d="M41.37,58.87h-7.86c.23-.74.46-1.48.69-2.22h7.86l-.7,2.22Z"/>
    <path class="cls-1" d="M61.94,56.66c.23.74.45,1.52.68,2.26h-7.88l-.69-2.27h7.89Z"/>
    <path class="cls-1" d="M48.06,12.84c-2.78,8.41-8.25,25.28-8.25,25.28h-9.62s-15.86,0-15.86,0c0,0,13.43,10.11,20.16,15.09h8.66l4.91-17.56,4.92,17.56h8.61c6.66-5.02,11.58-8.44,11.58-8.44l8.61-6.64h-25.12l-8.6-25.28Z"/>
  </g>
</svg>