<svg viewBox="0 0 400 125.85" xmlns="http://www.w3.org/2000/svg"><path d="m-12.41-286.7h400v400h-400z" fill="none"/><path d="m54.74 25.28c-22.45 0-40.71 18.26-40.71 40.71s18.26 40.71 40.71 40.71 40.71-18.26 40.71-40.71-18.26-40.71-40.71-40.71zm-2.75 56.09c-4.96 3.64-9.89 7.34-14.87 10.94.25-1.17.68-2.29 1.03-3.43 1.13-3.64 2.29-7.27 3.44-10.91h6.66l-.87 2.75h5.47c-.3.23-.54.43-.86.64zm-9.53-6.16c.2-.63.39-1.25.59-1.88h6.67l-.59 1.88h-6.66zm17.41-1.89h6.69c.2.64.38 1.3.58 1.92h-6.68zm-3.15 7.41h5.4l-.8-2.73h6.65l4.51 14.51c-5.19-3.76-10.6-7.98-15.76-11.78zm19.37-17.49s-4.17 2.9-9.82 7.16h-7.3s-4.18-14.9-4.18-14.9l-4.17 14.9h-7.34c-5.71-4.22-17.1-12.79-17.1-12.79h13.45s8.15 0 8.15 0 4.64-14.31 6.99-21.44l7.3 21.44h21.31l-7.3 5.63z"/><path d="m121.03 83.78c-2.15-.97-3.84-2.29-5.09-3.96s-1.94-3.51-2.06-5.54h8.4c.16 1.27.78 2.32 1.88 3.16 1.09.83 2.45 1.25 4.08 1.25s2.83-.32 3.72-.95c.89-.64 1.34-1.45 1.34-2.44 0-1.07-.55-1.88-1.64-2.41-1.09-.54-2.83-1.12-5.21-1.76-2.46-.6-4.48-1.21-6.05-1.85s-2.92-1.61-4.05-2.92-1.7-3.08-1.7-5.3c0-1.83.53-3.5 1.58-5.01s2.56-2.7 4.53-3.58c1.97-.87 4.28-1.31 6.94-1.31 3.93 0 7.07.98 9.41 2.95s3.64 4.62 3.87 7.96h-7.98c-.12-1.31-.67-2.35-1.64-3.13s-2.27-1.16-3.9-1.16c-1.51 0-2.67.28-3.48.83-.82.56-1.22 1.33-1.22 2.32 0 1.11.56 1.96 1.67 2.53 1.11.58 2.84 1.16 5.18 1.76 2.38.59 4.35 1.21 5.9 1.85s2.89 1.62 4.02 2.95 1.72 3.09 1.76 5.27c0 1.91-.53 3.61-1.58 5.12s-2.56 2.69-4.53 3.55c-1.97.85-4.26 1.28-6.88 1.28s-5.13-.49-7.27-1.46z"/><path d="m157.86 58.55v15.97c0 1.11.27 1.92.8 2.41.54.5 1.44.74 2.71.74h3.87v7.03h-5.24c-7.03 0-10.55-3.42-10.55-10.25v-15.91h-3.93v-6.85h3.93v-8.16h8.4v8.16h7.39v6.85h-7.39z"/><path d="m171.11 59.2c1.33-2.58 3.14-4.57 5.42-5.96s4.84-2.09 7.66-2.09c2.46 0 4.62.5 6.47 1.49s3.33 2.25 4.44 3.75v-4.71h8.4v33.01h-8.4v-4.83c-1.07 1.55-2.55 2.83-4.44 3.84s-4.06 1.52-6.53 1.52c-2.78 0-5.31-.71-7.6-2.14s-4.09-3.45-5.42-6.05-2-5.59-2-8.97.67-6.3 2-8.88zm22.8 3.79c-.8-1.45-1.87-2.56-3.22-3.34-1.35-.77-2.8-1.16-4.35-1.16s-2.98.38-4.29 1.13-2.37 1.86-3.19 3.31-1.22 3.17-1.22 5.16.41 3.72 1.22 5.21 1.89 2.63 3.22 3.43c1.33.79 2.75 1.19 4.26 1.19s3-.39 4.35-1.16 2.42-1.89 3.22-3.34c.79-1.45 1.19-3.19 1.19-5.21s-.4-3.76-1.19-5.21z"/><path d="m224.21 52.71c1.73-.99 3.7-1.49 5.93-1.49v8.76h-2.2c-2.62 0-4.6.62-5.93 1.85s-2 3.38-2 6.44v16.45h-8.34v-33.01h8.34v5.12c1.07-1.75 2.47-3.12 4.2-4.11z"/><path d="m235.58 59.2c1.33-2.58 3.14-4.57 5.42-5.96s4.84-2.09 7.66-2.09c2.46 0 4.62.5 6.47 1.49s3.33 2.25 4.44 3.75v-4.71h8.4v33.01h-8.4v-4.83c-1.07 1.55-2.55 2.83-4.44 3.84s-4.06 1.52-6.53 1.52c-2.78 0-5.31-.71-7.6-2.14s-4.09-3.45-5.42-6.05-2-5.59-2-8.97.67-6.3 2-8.88zm22.8 3.79c-.8-1.45-1.87-2.56-3.22-3.34-1.35-.77-2.8-1.16-4.35-1.16s-2.98.38-4.29 1.13-2.37 1.86-3.19 3.31-1.22 3.17-1.22 5.16.41 3.72 1.22 5.21 1.89 2.63 3.22 3.43c1.33.79 2.75 1.19 4.26 1.19s3-.39 4.35-1.16 2.42-1.89 3.22-3.34c.79-1.45 1.19-3.19 1.19-5.21s-.4-3.76-1.19-5.21z"/><path d="m288.92 52.68c1.89-1.01 4.04-1.52 6.47-1.52 2.82 0 5.37.7 7.66 2.09 2.28 1.39 4.09 3.37 5.42 5.93s2 5.53 2 8.91-.67 6.37-2 8.97-3.14 4.62-5.42 6.05c-2.29 1.43-4.84 2.14-7.66 2.14-2.42 0-4.56-.5-6.41-1.49s-3.35-2.24-4.5-3.75v20.44h-8.34v-48.74h8.34v4.77c1.07-1.51 2.55-2.77 4.44-3.78zm11.79 10.25c-.81-1.45-1.89-2.55-3.22-3.31s-2.77-1.13-4.32-1.13-2.93.39-4.26 1.16-2.4 1.9-3.22 3.37c-.81 1.47-1.22 3.2-1.22 5.18s.41 3.72 1.22 5.18c.81 1.47 1.89 2.59 3.22 3.37s2.75 1.16 4.26 1.16 2.99-.4 4.32-1.19 2.4-1.93 3.22-3.4 1.22-3.22 1.22-5.24-.41-3.7-1.22-5.16z"/><path d="m329.32 52.68c1.89-1.01 4.04-1.52 6.47-1.52 2.82 0 5.37.7 7.66 2.09 2.28 1.39 4.09 3.37 5.42 5.93s2 5.53 2 8.91-.67 6.37-2 8.97-3.14 4.62-5.42 6.05c-2.29 1.43-4.84 2.14-7.66 2.14-2.42 0-4.56-.5-6.41-1.49s-3.35-2.24-4.5-3.75v20.44h-8.34v-48.74h8.34v4.77c1.07-1.51 2.55-2.77 4.44-3.78zm11.79 10.25c-.81-1.45-1.89-2.55-3.22-3.31-1.33-.75-2.77-1.13-4.32-1.13s-2.93.39-4.26 1.16-2.4 1.9-3.22 3.37c-.81 1.47-1.22 3.2-1.22 5.18s.41 3.72 1.22 5.18c.81 1.47 1.89 2.59 3.22 3.37s2.75 1.16 4.26 1.16 2.99-.4 4.32-1.19 2.4-1.93 3.22-3.4 1.22-3.22 1.22-5.24-.41-3.7-1.22-5.16z"/><path d="m362.3 83.78c-2.15-.97-3.84-2.29-5.09-3.96s-1.94-3.51-2.06-5.54h8.4c.16 1.27.78 2.32 1.88 3.16 1.09.83 2.45 1.25 4.08 1.25s2.83-.32 3.72-.95c.89-.64 1.34-1.45 1.34-2.44 0-1.07-.55-1.88-1.64-2.41-1.09-.54-2.83-1.12-5.21-1.76-2.46-.6-4.48-1.21-6.05-1.85s-2.92-1.61-4.05-2.92-1.7-3.08-1.7-5.3c0-1.83.53-3.5 1.58-5.01s2.56-2.7 4.53-3.58c1.97-.87 4.28-1.31 6.94-1.31 3.93 0 7.07.98 9.41 2.95s3.64 4.62 3.87 7.96h-7.98c-.12-1.31-.67-2.35-1.64-3.13s-2.27-1.16-3.9-1.16c-1.51 0-2.67.28-3.48.83-.82.56-1.22 1.33-1.22 2.32 0 1.11.56 1.96 1.67 2.53 1.11.58 2.84 1.16 5.18 1.76 2.38.59 4.35 1.21 5.9 1.85s2.89 1.62 4.02 2.95 1.72 3.09 1.76 5.27c0 1.91-.53 3.61-1.58 5.12s-2.56 2.69-4.53 3.55c-1.97.85-4.26 1.28-6.88 1.28s-5.13-.49-7.27-1.46z"/></svg>